<?xml version="1.0" encoding="utf-8"?>
<!-- Generator: Adobe Illustrator 24.3.0, SVG Export Plug-In . SVG Version: 6.00 Build 0)  -->
<svg version="1.0" id="login-bg" xmlns="http://www.w3.org/2000/svg" xmlns:xlink="http://www.w3.org/1999/xlink" x="0px" y="0px"
	 viewBox="0 0 500.96899 597.40601" style="enable-background:new 0 0 500.96899 597.40601;" xml:space="preserve">
<style type="text/css">
	.st0{fill-rule:evenodd;clip-rule:evenodd;fill:#404040;}
	.st1{fill-rule:evenodd;clip-rule:evenodd;fill:#E94D89;}
	.st2{fill-rule:evenodd;clip-rule:evenodd;fill:#00C68D;}
	.st3{fill-rule:evenodd;clip-rule:evenodd;fill:#181818;stroke:#404040;}
	.st4{fill-rule:evenodd;clip-rule:evenodd;fill:#EA9419;}
	.st5{fill-rule:evenodd;clip-rule:evenodd;fill:#F76337;}
	.st6{fill:#3E50DA;}
	.st7{fill-rule:evenodd;clip-rule:evenodd;fill:#A55EDB;}
	.st8{fill:#404040;}
</style>
<g>
	<path class="st0" d="M324.04401-84.82599v26.65997h0.64502v-26.659c-0.0072-4.85071-3.93829-8.78094-8.789-8.78699H199.46301
		v0.64996h116.44202C320.39709-92.95758,324.03796-89.31805,324.04401-84.82599z"/>
	<path class="st0" d="M302.70502,247.84399h43.45697V235.617h-43.45697V247.84399z M303.35602,236.26697h42.15601v0.00006v10.927
		h-42.15601V236.26697z"/>
	<path class="st0" d="M500.68799,304.71301c-8.28296-0.88702-13.94696-4-16.83197-9.25201
		c-1.58502-2.88702-2.39001-7.013-2.39001-12.26099v-11.633c0-8.58899-1.461-15.11005-4.34204-19.38
		c-4.422-6.66901-12.92102-10.56903-25.26001-11.56903l-0.35199-0.02795v8.79999l0.29999,0.02496
		c7.55701,0.65302,12.71204,3.85602,15.31201,9.51703c1.45203,3.17999,2.18701,7.93799,2.18701,14.138v7.99103
		c0,7.19995,0.90002,12.797,2.67401,16.63599c2.92499,6.29401,8.383,10.13696,16.24603,11.448
		c-7.823,1.30597-13.28198,5.29999-16.24799,11.89996c-1.77301,3.935-2.67303,9.41699-2.67303,16.29303v10.78998
		c0,6.5-1.67999,11.48303-4.97998,14.81201c-3.37689,3.36584-7.79565,5.48669-12.534,6.01599l-0.28302,0.03699V378l0.36005-0.04602
		c8.45099-0.90698,15.56097-3.40302,21.13196-7.41901c5.61499-4.04901,8.461-11.01398,8.461-20.70001v-14.71997
		c0-5.02002,0.80499-9.08002,2.39203-12.06403c2.92798-5.44696,8.59497-8.63501,16.828-9.47797l0.29199-0.02899v-8.79999
		L500.68799,304.71301z M500.328,312.96503c-8.302,0.91101-14.03497,4.20203-17.04297,9.78699
		c-1.638,3.08099-2.46802,7.24304-2.46802,12.37103v14.71997c0,9.47101-2.75598,16.25299-8.19098,20.17102
		c-5.40002,3.89197-12.28204,6.33398-20.46204,7.26099v-7.71301c4.77783-0.59082,9.22205-2.75861,12.62897-6.16003
		c3.43005-3.45398,5.17004-8.59198,5.17004-15.26996v-10.79004c0-6.78296,0.88-12.17499,2.61499-16.026
		c3.17297-7.06,9.31097-11.039,18.24396-11.83899v-0.64801c-8.98297-0.83997-15.12299-4.67596-18.24799-11.39996
		c-1.73401-3.75201-2.61298-9.26202-2.61298-16.362v-7.992c0-6.29498-0.75604-11.14203-2.24603-14.409
		c-2.67499-5.815-7.90601-9.13403-15.55096-9.86603v-7.5c11.94,1.03101,20.15399,4.815,24.41998,11.25299
		c2.80902,4.16205,4.23303,10.56104,4.23303,19.01801v11.63306c0,5.36005,0.83099,9.59003,2.46997,12.57404
		c2.96002,5.388,8.69202,8.60095,17.04102,9.55396V312.96503z"/>
	<path class="st0" d="M449.12701-58.49103V-93.091h-94.034v34.59998H449.12701z M355.74402-92.44098h92.73199v33.29999h-92.73199
		V-92.44098z"/>
	<polygon class="st0" points="324.69403,-58.16602 324.68903,-58.16602 324.68903,-58.16498 	"/>
	<path class="st0" d="M448.29999,183.45001c-38.20001-0.31-70.66998-28.01001-76.98999-65.67999h85.45001V109.31H190.03003v8.46002
		h162.85999c6.47998,47.81,47.15997,83.57996,95.40997,83.88995v12.68005c-0.01001,4.48999-3.64996,8.12994-8.14001,8.13995
		h-87.81995V223.13h67.57996c-3.52997,1.15002-6.07996,4.46002-6.09998,8.37v102.20001h0.64996V231.5
		c0.02002-4.45001,3.59003-8.07001,8.04004-8.14001l17.65997-0.21997V223.13c4.85004-0.02002,8.77002-3.94,8.78003-8.78998v-30.88
		V146.75h-0.65002V183.45001z M190.67999,117.12v-7.15997h265.42999V117.12h-84.90997h-17.75H190.67999z M448.29999,201.01001
		c-47.89001-0.31-88.27997-35.79004-94.76001-83.23999h17.11005c6.32996,38.02997,39.08997,66.02997,77.64996,66.32996V201.01001z"
		/>
	<path class="st0" d="M331.85004,227.03198v3.25201h7.80701v-3.25201h-0.00006H331.85004z M339.00598,229.633h-6.5v-1.95099h6.5
		V229.633z"/>
	<path class="st0" d="M177.66901-35.72998c0.01654-11.84833,9.61969-21.44788,21.46802-21.46002v-0.00299
		c11.84985,0.01154,21.4541,9.61316,21.46899,21.46301c0,0.00104-0.00018,0.00195-0.00018,0.00299h0.65015
		c-0.00165-12.21436-9.90466-22.11469-22.11896-22.11304c-12.21436-0.00165-22.11737,9.89868-22.11902,22.11304
		c0.00165,12.21429,9.90466,22.11462,22.11902,22.11298v-0.65302C187.28754-14.27911,177.6839-23.88055,177.66901-35.72998z"/>
	<path class="st0" d="M199.13702-35.72699v21.45996c0.21979-0.00024,0.4328-0.02667,0.651-0.03345v-20.77655h20.78424
		c0.00677-0.21783,0.03326-0.43054,0.03357-0.64996H199.13702z"/>
	<rect x="406.98901" y="-78.659" class="st0" width="34.47998" height="0.64996"/>
	<rect x="374.461" y="-78.65002" class="st0" width="28.625" height="0.65002"/>
	<polygon class="st0" points="429.10803,-83.20502 429.10803,-83.85498 374.461,-83.85498 374.461,-83.20502 429.10797,-83.20502 	
		"/>
	<rect x="433.01099" y="-83.85901" class="st0" width="8.45801" height="0.65002"/>
	<rect x="374.461" y="-68.25" class="st0" width="14.96301" height="0.65002"/>
	<rect x="199.78802" y="-119.62799" class="st0" width="249.81201" height="0.651"/>
	<rect x="393.97803" y="-68.25" class="st0" width="47.49097" height="0.64996"/>
	<rect x="374.461" y="-73.45001" class="st0" width="67.008" height="0.65002"/>
	<path class="st0" d="M151.31201,33.48297l25.133,12.5l-25.133,12.5v5.18201l30.39697-15.58795l0.177-0.091v-4.008
		l-30.57397-15.67804V33.48297z M151.96301,29.36499l29.27197,15.01202v3.21198l-29.27197,15.01099v-3.71399l25.40802-12.638V45.716
		l-25.40802-12.63599V29.36499z"/>
	<path class="st0" d="M448.29999-35.07703v139.18402H199.78802V-3.22638c-0.21729,0.00427-0.43268,0.01636-0.651,0.01636V104.758
		h249.81299V-35.72699h-217.2851c-0.00006,0.21802-0.01221,0.43298-0.01654,0.64996H448.29999z"/>
	<path class="st0" d="M199.78802-13.63037c-0.2168,0.00623-0.43268,0.01636-0.651,0.01636v9.75604
		c0.21832-0.00024,0.43372-0.01251,0.651-0.01709V-13.63037z"/>
	<path class="st0" d="M199.13599-3.21002c0.00037,0,0.00067,0,0.00104,0v-0.64795
		c-17.59479-0.01764-31.85498-14.27429-31.87701-31.86902c0.01984-17.59631,14.2807-31.85535,31.87701-31.87299
		c17.59473,0.01758,31.85492,14.27423,31.87695,31.86896c0,0.00134-0.00012,0.00269-0.00012,0.00403h0.65106
		c0-0.00098,0.00006-0.00201,0.00006-0.00299C231.66278-53.6925,217.09949-68.2522,199.13702-68.25
		c-17.96198-0.0022-32.52484,14.55701-32.52704,32.51898c0,0.00037,0,0.00067,0,0.00104
		C166.61163-17.76807,181.17401-3.20837,199.13599-3.21002z"/>
	<rect x="231.98206" y="222.48999" class="st0" width="64.39996" height="0.65048"/>
	<path class="st0" d="M302.70502,221.828h43.45697v-12.22699h-43.45697V221.828z M303.35602,210.25098h42.15601v10.927h-42.15601
		V210.25098z"/>
	<path class="st0" d="M157.48199-50.60901l0.00104,0.00098v-9.00696l-0.28302-0.03802
		c-4.73907-0.5257-9.15924-2.64465-12.53705-6.01001c-3.30396-3.32898-4.97998-8.31201-4.97998-14.81201v-10.78998
		c0-6.875-0.89899-12.35602-2.67297-16.29303c-2.966-6.59998-8.42499-10.59998-16.24701-11.89996
		c7.862-1.31104,13.32001-5.15399,16.24597-11.448c1.77405-3.836,2.67401-9.43604,2.67401-16.63605v-7.992
		c0-6.20099,0.73499-10.95795,2.18604-14.13696c2.604-5.66199,7.75598-8.86499,15.31299-9.51703l0.29999-0.026v-8.79999
		l-0.35199,0.02899c-12.33899,1.00403-20.83801,4.89703-25.258,11.56702c-2.883,4.27203-4.34399,10.79303-4.34399,19.38202v11.633
		c0,5.24902-0.80499,9.37402-2.39001,12.26099c-2.88501,5.25201-8.54901,8.36499-16.83197,9.25201l-0.29004,0.03101v8.79999
		l0.29199,0.03003c8.23303,0.84198,13.89404,4.02997,16.828,9.47595c1.58704,2.98505,2.39203,7.04602,2.39203,12.06604v14.71997
		c0,9.68701,2.84601,16.65204,8.461,20.70001c5.57098,4.01898,12.68201,6.51202,21.13202,7.41901L157.48199-50.60901z
		 M156.83099-51.33301c-8.17999-0.92603-15.06097-3.36798-20.461-7.26001c-5.43597-3.91998-8.19202-10.70697-8.19202-20.17297
		v-14.72003c0-5.12897-0.82996-9.29102-2.46899-12.37299c-3.00671-5.58453-8.74103-8.87347-17.03998-9.78479v0.00482
		l-0.00201-0.00507c0.00067,0.00006,0.00134,0.00018,0.00201,0.00024v-7.62817c8.349-0.95502,14.08099-4.16705,17.04102-9.55505
		c1.63898-2.98297,2.46997-7.21295,2.46997-12.573v-11.64203c0-8.45697,1.42401-14.85596,4.23401-19.01996
		c4.26501-6.43506,12.479-10.22003,24.41901-11.25104v7.5c-7.64502,0.73199-12.87604,4.05103-15.552,9.867
		c-1.48901,3.26599-2.245,8.10803-2.245,14.40802v7.992c0,7.10498-0.87903,12.61102-2.61304,16.36298
		c-3.12598,6.72302-9.26398,10.55902-18.24799,11.40002v0.64801c8.93298,0.79602,15.07098,4.77899,18.24402,11.83899
		c1.73499,3.85199,2.61499,9.24402,2.61499,16.026v10.78998c0,6.67804,1.73999,11.815,5.16998,15.27002
		c3.40588,3.40253,7.84937,5.57166,12.62701,6.164V-51.33301z"/>
	<path class="st0" d="M331.85004,214.02399v3.25201h7.80701v-3.25201h-0.00006H331.85004z M339.00598,216.625h-6.5v-1.95099h6.5
		V216.625z"/>
	<path class="st0" d="M302.70502,208.82098h43.45697v-12.22797h-43.45697V208.82098z M303.35602,197.24402h42.15601v10.92596
		h-42.15601V197.24402z"/>
	<polygon class="st0" points="324.04401,76.01001 249.75,76.01001 249.75,-6.97998 324.04401,-6.97998 324.04401,-7.63 
		249.10004,-7.63 249.10004,76.66101 324.04401,76.66101 	"/>
	<path class="st0" d="M331.85004,240.039v3.25201h7.80701V240.039h-0.00006H331.85004z M339.00598,242.64099h-6.5V240.69h6.5
		V242.64099z"/>
	<path class="st0" d="M221.23944-35.07703h-0.66718c-0.35541,11.3266-9.45728,20.42542-20.78424,20.77655v0.6701
		C211.48401-13.9679,220.89929-23.38104,221.23944-35.07703z"/>
	<rect x="324.04401" y="-6.97998" class="st0" width="0.65002" height="82.98999"/>
	<path class="st0" d="M221.23944-35.07703h9.75726c0.00464-0.21692,0.01691-0.43195,0.01715-0.64996h-9.75787
		C221.25598-35.50897,221.24573-35.29352,221.23944-35.07703z"/>
	<path class="st0" d="M199.78802-3.87506v0.64868c17.44293-0.34155,31.51343-14.40808,31.86035-31.85065h-0.65167
		C230.63275-18.00116,216.86432-4.23523,199.78802-3.87506z"/>
	<path class="st0" d="M331.85004,201.01599v3.25201h7.80701v-3.25201h-0.00006H331.85004z M339.00598,203.617h-6.5v-1.95099h6.5
		V203.617z"/>
	<path class="st0" d="M302.70502,234.836h43.45697v-12.22699h-43.45697V234.836z M303.35602,223.25897h42.15601v0.00006v10.927
		h-42.15601V223.25897z"/>
</g>
<path class="st0" d="M440.16998,223.13h-20.25c0.82001-0.26001,1.69-0.41003,2.59003-0.41998l17.64996-0.22003L440.16998,223.13z"/>
<path class="st0" d="M242.83099,597.40002l-0.3-0.03101c-6.937-0.745-12.774-2.79303-17.347-6.08801
	c-4.60899-3.32098-6.946-9.03497-6.946-16.98297v-12.07501c0-4.11902-0.661-7.45001-1.963-9.90002
	c-2.408-4.46698-7.056-7.08301-13.814-7.77399l-0.24001-0.02502v-7.224l0.239-0.02502c6.8-0.72803,11.448-3.28198,13.81599-7.59198
	c1.3-2.36798,1.96201-5.75201,1.96201-10.05902v-9.54401c0-7.047,1.2-12.39999,3.56599-15.89999
	c3.62801-5.47299,10.605-8.66599,20.73399-9.48999l0.289-0.02399v7.21799l-0.244,0.021c-6.2,0.535-10.433,3.16199-12.571,7.80801
	c-1.19,2.608-1.79401,6.51099-1.79401,11.60001V517.87c0,5.90698-0.739,10.5-2.2,13.64899
	c-2.39999,5.164-6.883,8.31702-13.336,9.39203c6.42101,1.07098,10.89999,4.34802,13.33701,9.763
	c1.45599,3.22998,2.194,7.72699,2.194,13.367v8.85303c0,5.33301,1.37601,9.42102,4.088,12.15198
	c2.77202,2.76263,6.39946,4.50281,10.289,4.93597l0.23199,0.03101v7.38702H242.83099z M202.759,544.04199
	c6.81599,0.74799,11.522,3.448,13.991,8.02802c1.345,2.52899,2.026,5.94397,2.026,10.15198v12.078
	c0,7.76703,2.26199,13.33502,6.72501,16.55103c4.43201,3.19299,10.082,5.20001,16.8,5.95599v-6.328
	c-3.92169-0.4856-7.56944-2.26514-10.366-5.05701c-2.815-2.83398-4.243-7.04901-4.243-12.52802v-8.854
	c0-5.56403-0.722-9.98798-2.147-13.14801c-2.60001-5.79199-7.64301-9.06-14.976-9.71301v-0.53198
	c7.375-0.69,12.414-3.83801,14.979-9.354c1.424-3.078,2.146-7.59998,2.146-13.42401v-6.55701c0-5.16501,0.62-9.142,1.843-11.82101
	c2.2-4.772,6.49001-7.5,12.76601-8.10001v-6.14899c-9.8,0.84601-16.545,3.95099-20.045,9.23099
	c-2.30701,3.41699-3.476,8.66599-3.476,15.60501v9.54401c0,4.40002-0.68201,7.86798-2.028,10.31598
	c-2.429,4.41998-7.13499,7.05701-13.989,7.83899v6.26202L202.759,544.04199z"/>
<path class="st0" d="M0,312.39999c21.17489-0.05756,41.49279,8.3584,56.425,23.37201
	c31.16101,31.16336,31.16101,81.68665,0,112.85001C41.49404,463.63818,21.17584,472.05643,0,472
	c-21.17498,0.05801-41.49305-8.35803-56.425-23.37201c-15.01564-14.93231-23.43279-35.25159-23.375-56.42798
	c-0.05756-21.1749,8.35839-41.4928,23.372-56.42499C-41.49556,320.75955-21.17637,312.34244,0,312.39999 M0,311.86099
	c-44.36918,0-80.33751,35.96832-80.33751,80.33749S-44.36918,472.53601,0,472.53601c44.36835,0,80.336-35.96765,80.336-80.336l0,0
	c0-44.36835-35.96765-80.336-80.336-80.336h0l0,0V311.86099z M0,326.961c17.31184-0.0473,33.92309,6.83328,46.131,19.108
	c25.47744,25.47739,25.4775,66.78442,0.00012,92.26187c-0.00004,0.00003-0.00008,0.00009-0.00012,0.00012
	C33.92309,450.60571,17.31184,457.4863,0,457.439c-17.31184,0.0473-33.92309-6.83328-46.131-19.108
	c-12.27482-12.20786-19.15541-28.81912-19.108-46.13098c-0.04742-17.31186,6.83318-33.92316,19.108-46.13101
	C-33.92309,333.79428-17.31184,326.9137,0,326.961 M0,326.422c-36.32819,0-65.778,29.4498-65.778,65.77798
	c0,0.00003,0,0.00003,0,0.00003C-65.77799,428.52835-36.32834,457.97845,0,457.979
	c36.32834-0.00055,65.77799-29.45065,65.778-65.77899C65.77801,355.87183,36.32821,326.422,0.00002,326.422
	C0.00001,326.422,0.00001,326.422,0,326.422L0,326.422z"/>
<path class="st0" d="M293.39999,433.91699V445.117l59.45001,29.612L293.586,504.24899l-0.186,0.09299v11.20001l70.63699-36.27701
	l0.18201-0.09399v-8.888L293.89001,434.168L293.39999,433.91699z M294.07199,435.017l69.47601,35.68301v8.06601l-69.47699,35.681
	v-9.686l59.379-29.57599l0.186-0.09201v-0.72l-59.56403-29.673v-9.686V435.017z M269,421v45.06799
	c0.00275,5.01373,4.06326,9.07919,9.077,9.08801h42.323v-0.672h-42.323c-4.64062-0.01157-8.39725-3.77536-8.39999-8.41602V421H269z"
	/>
<path id="Bg" class="st1" d="M-0.055,523.922c16.56854,0,30,13.43146,30,30s-13.43146,30-30,30s-30-13.43146-30-30
	S-16.62354,523.922-0.055,523.922L-0.055,523.922z"/>
<path id="Bg-2" class="st2" d="M324.94501-25.078c11.04568,0,20,8.95431,20,20s-8.95432,20-20,20s-20-8.95431-20-20
	S313.89932-25.078,324.94501-25.078z"/>
<path id="Bg_" class="st3" d="M290.39999,147.01801c7.43375-0.00055,13.46045,6.02527,13.461,13.45901
	c0.00052,7.43375-6.02527,13.46043-13.45901,13.46098c-7.43378,0.00055-13.46045-6.02525-13.461-13.45901
	c0-0.00032,0-0.00066,0-0.00098C276.94098,153.04465,282.96661,147.01855,290.39999,147.01801z"/>
<path id="Bg-3" class="st4" d="M60.945,92.922c5.52285,0,10,4.47715,10,10s-4.47715,10-10,10s-10-4.47715-10-10
	S55.42215,92.922,60.945,92.922z"/>
<path id="Bg-4" class="st5" d="M413.94501,336.922c2.76141,0,5,2.23859,5,5s-2.23859,5-5,5s-5-2.23859-5-5
	S411.18359,336.922,413.94501,336.922z"/>
<path id="Bg-5" class="st6" d="M317.93799,562L317.93799,562c2.76141,0,5,2.23859,5,5l0,0c0,2.76141-2.23859,5-5,5l0,0
	c-2.76141,0-5-2.23859-5-5l0,0C312.93799,564.23859,315.17657,562,317.93799,562z"/>
<path id="Bg-6" class="st7" d="M448.94501,127.922c2.76141,0,5,2.23857,5,5s-2.23859,5-5,5s-5-2.23857-5-5
	S446.18359,127.922,448.94501,127.922z"/>
<path id="Bg-7" class="st8" d="M140.375,490.56201L140.375,490.56201c2.76143,0,5,2.23859,5,5l0,0c0,2.76141-2.23857,5-5,5l0,0
	c-2.76143,0-5-2.23859-5-5l0,0C135.375,492.8006,137.61357,490.56201,140.375,490.56201z"/>
</svg>
